<?xml version="1.0" encoding="utf-8"?>
<!-- Generator: Adobe Illustrator 22.1.0, SVG Export Plug-In . SVG Version: 6.00 Build 0)  -->
<svg version="1.1" id="Layer_1" xmlns="http://www.w3.org/2000/svg" xmlns:xlink="http://www.w3.org/1999/xlink" x="0px" y="0px"
	 viewBox="0 0 512 512" style="enable-background:new 0 0 512 512;" xml:space="preserve">
<style type="text/css">
	.st0{fill:#6770E6;}
	.st1{fill:#5861C7;}
	.st2{fill:#FFEFE4;}
	.st3{fill:#D476E2;}
	.st4{fill:#EA82FA;}
	.st5{fill:#B665C2;}
	.st6{fill:#69EBFC;}
	.st7{fill:#FF8354;}
	.st8{fill:#333399;}
	.st9{fill:#E0734A;}
	.st10{fill:#FFAC8C;}
	.st11{fill:#382F8B;}
	.st12{fill:#C7FCFE;}
	.st13{fill:#EDD4C2;}
	.st14{fill:#8F95E6;}
	.st15{fill:#A1F1FC;}
	.st16{fill:#FFF7F2;}
	.st17{opacity:0.8;fill:#A1F1FC;}
	.st18{fill:#4C54AD;}
	.st19{fill:#5FD4E3;}
	.st20{fill:#FFE4D1;}
	.st21{fill:#5ED4E3;}
	.st22{fill:#56C1CF;}
	.st23{fill:#9FA5FF;}
	.st24{fill:#C46541;}
	.st25{fill:#FFCAB5;}
	.st26{fill:#5A62C9;}
	.st27{fill:#BABEFF;}
</style>
<g>
	<path id="XMLID_131_" class="st6" d="M430.993,512H81.007c-11.046,0-20-8.954-20-20V20c0-11.046,8.954-20,20-20H360l90.993,92v400
		C450.993,503.046,442.038,512,430.993,512z"/>
	<path class="st15" d="M360,0H81.007c-11.046,0-20,8.954-20,20v0H360V0z"/>
	<path class="st19" d="M61.007,492L61.007,492c0,11.046,8.954,20,20,20h349.985c11.046,0,20-8.954,20-20v0H61.007z"/>
	<path class="st0" d="M327.38,185.805h-12.261c-1.409-5.129-3.487-9.978-6.146-14.446l8.499-8.499c1.804-1.804,1.804-4.729,0-6.534
		l-14.818-14.818c-1.804-1.804-4.729-1.804-6.533,0l-8.708,8.708c-4.505-2.565-9.374-4.563-14.522-5.873V132.29
		c0-2.551-2.068-4.62-4.62-4.62h-20.955c-2.551,0-4.62,2.068-4.62,4.62v12.343c-5.11,1.402-9.941,3.47-14.395,6.113l-8.55-8.549
		c-1.804-1.805-4.729-1.805-6.533,0l-14.818,14.817c-1.804,1.804-1.804,4.729,0,6.534l8.732,8.732
		c-2.568,4.498-4.573,9.358-5.889,14.498h-12.062c-2.551,0-4.62,2.068-4.62,4.62v20.955c0,2.551,2.068,4.62,4.62,4.62h12.307
		c1.398,5.124,3.466,9.968,6.111,14.434l-8.511,8.511c-1.804,1.804-1.804,4.729,0,6.534l14.818,14.817
		c1.804,1.804,4.729,1.804,6.533,0l8.673-8.673c4.514,2.583,9.395,4.598,14.557,5.919v11.974c0,2.551,2.068,4.62,4.62,4.62h20.955
		c2.551,0,4.62-2.068,4.62-4.62v-12.225c5.143-1.404,10.005-3.483,14.484-6.143l8.461,8.46c1.804,1.804,4.729,1.804,6.533,0
		l14.818-14.818c1.804-1.804,1.804-4.729,0-6.533l-8.649-8.649c2.58-4.522,4.588-9.411,5.903-14.581h11.966
		c2.552,0,4.62-2.068,4.62-4.62v-20.955C332,187.874,329.932,185.805,327.38,185.805z M258.318,233.467
		c-17.689,0-32.029-14.34-32.029-32.029c0-17.689,14.34-32.029,32.029-32.029c17.689,0,32.029,14.34,32.029,32.029
		C290.347,219.127,276.007,233.467,258.318,233.467z"/>
	<path class="st15" d="M450.993,90.993H380c-11.046,0-20-8.954-20-20V0L450.993,90.993z"/>
	<path class="st16" d="M363,388H153c-7.732,0-14-6.268-14-14l0,0c0-7.732,6.268-14,14-14h210c7.732,0,14,6.268,14,14l0,0
		C377,381.732,370.732,388,363,388z"/>
	<path class="st0" d="M365.206,220.225c-4.293-1.042-8.619,1.596-9.66,5.89C344.428,271.973,303.674,304,256.44,304
		c-29.675,0-57.824-12.901-77.229-35.395c-11.215-13-18.372-29.443-20.759-47.28l0.831,0.831c1.562,1.562,3.609,2.343,5.657,2.343
		s4.095-0.781,5.657-2.343c3.125-3.124,3.125-8.189,0-11.313l-15-15c-3.124-3.124-8.189-3.124-11.313,0l-15,15
		c-3.125,3.124-3.125,8.189,0,11.313c3.124,3.124,8.189,3.124,11.313,0l1.655-1.655c2.37,22.021,10.968,42.47,24.844,58.555
		C189.544,305.077,222.108,320,256.44,320c26.996,0,52.4-8.876,73.466-25.67c20.435-16.29,35.063-39.177,41.189-64.445
		C372.137,225.591,369.5,221.266,365.206,220.225z"/>
	<path class="st0" d="M382.716,181.843c-3.124-3.124-8.189-3.124-11.313,0l-1.655,1.655c-2.37-22.021-10.968-42.47-24.844-58.555
		C322.456,98.923,289.892,84,255.56,84c-26.996,0-52.4,8.876-73.467,25.67c-20.435,16.29-35.063,39.177-41.189,64.445
		c-1.041,4.294,1.596,8.619,5.89,9.66c4.292,1.038,8.618-1.596,9.66-5.89C167.571,132.027,208.325,100,255.56,100
		c29.675,0,57.824,12.901,77.229,35.395c11.215,13,18.372,29.443,20.759,47.28l-0.831-0.831c-3.124-3.124-8.189-3.124-11.313,0
		c-3.125,3.124-3.125,8.189,0,11.313l15,15c1.562,1.562,3.609,2.343,5.657,2.343s4.095-0.781,5.657-2.343l15-15
		C385.841,190.033,385.841,184.967,382.716,181.843z"/>
	<path class="st7" d="M304,360H153c-7.732,0-14,6.268-14,14s6.268,14,14,14h151V360z"/>
</g>
</svg>
